# Blender v2.79 (sub 0) OBJ File: 'Stairs.blend'
# www.blender.org
mtllib Stairs.mtl
o Cube_Cube.001
v -0.071102 0.010887 1.000000
v -0.071102 0.143774 1.000000
v -0.071102 0.010887 -1.000000
v -0.071102 0.143774 -1.000000
v 0.288540 0.010887 1.000000
v 0.288540 0.143774 1.000000
v 0.288540 0.010887 -1.000000
v 0.288540 0.143774 -1.000000
v -0.411060 0.010867 1.000000
v -0.411060 0.254255 1.000000
v -0.423872 0.010867 -1.000000
v -0.411060 0.254255 -1.000000
v -0.070321 0.010867 1.000000
v -0.070321 0.254255 1.000000
v -0.070321 0.010867 -1.000000
v -0.070321 0.254255 -1.000000
v -0.652525 0.010887 1.000000
v -0.652525 0.362118 1.000000
v -0.652525 0.010887 -1.000000
v -0.652525 0.362118 -1.000000
v -0.409872 0.010887 1.000000
v -0.409872 0.362118 1.000000
v -0.409872 0.010887 -1.000000
v -0.409872 0.362118 -1.000000
v -0.943675 0.010887 1.000000
v -0.943675 0.445274 1.000000
v -0.943675 0.010887 -1.000000
v -0.943675 0.445274 -1.000000
v -0.655672 0.010887 1.000000
v -0.655672 0.445274 1.000000
v -0.655672 0.010887 -1.000000
v -0.655672 0.445274 -1.000000
v -1.305178 0.010887 1.000000
v -1.305178 0.532526 1.000000
v -1.305178 0.010887 -1.000000
v -1.305178 0.532526 -1.000000
v -0.945536 0.010887 1.000000
v -0.945536 0.532526 1.000000
v -0.945536 0.010887 -1.000000
v -0.945536 0.532526 -1.000000
v -1.645137 0.010867 1.000000
v -1.645137 0.622307 1.000000
v -1.657948 0.010867 -1.000000
v -1.645137 0.622307 -1.000000
v -1.304397 0.010867 1.000000
v -1.304397 0.622307 1.000000
v -1.304397 0.010867 -1.000000
v -1.304397 0.622307 -1.000000
v -1.886602 0.010887 1.000000
v -1.886602 0.734716 1.000000
v -1.886602 0.010887 -1.000000
v -1.886602 0.734716 -1.000000
v -1.643948 0.010887 1.000000
v -1.643948 0.734716 1.000000
v -1.643948 0.010887 -1.000000
v -1.643948 0.734716 -1.000000
v -2.177752 0.010887 1.000000
v -2.177752 0.841215 1.000000
v -2.177752 0.010887 -1.000000
v -2.177752 0.841215 -1.000000
v -1.889748 0.010887 1.000000
v -1.889748 0.841215 1.000000
v -1.889748 0.010887 -1.000000
v -1.889748 0.841215 -1.000000
vn -1.0000 0.0000 0.0000
vn 0.0000 0.0000 -1.0000
vn 1.0000 0.0000 0.0000
vn 0.0000 0.0000 1.0000
vn 0.0000 -1.0000 0.0000
vn 0.0000 1.0000 0.0000
vn -0.9996 0.0263 0.0032
vn -0.9999 0.0105 0.0032
usemtl None
s off
f 1//1 2//1 4//1 3//1
f 3//2 4//2 8//2 7//2
f 7//3 8//3 6//3 5//3
f 5//4 6//4 2//4 1//4
f 3//5 7//5 5//5 1//5
f 8//6 4//6 2//6 6//6
f 9//7 10//7 12//7 11//7
f 11//2 12//2 16//2 15//2
f 15//3 16//3 14//3 13//3
f 13//4 14//4 10//4 9//4
f 11//5 15//5 13//5 9//5
f 16//6 12//6 10//6 14//6
f 17//1 18//1 20//1 19//1
f 19//2 20//2 24//2 23//2
f 23//3 24//3 22//3 21//3
f 21//4 22//4 18//4 17//4
f 19//5 23//5 21//5 17//5
f 24//6 20//6 18//6 22//6
f 25//1 26//1 28//1 27//1
f 27//2 28//2 32//2 31//2
f 31//3 32//3 30//3 29//3
f 29//4 30//4 26//4 25//4
f 27//5 31//5 29//5 25//5
f 32//6 28//6 26//6 30//6
f 33//1 34//1 36//1 35//1
f 35//2 36//2 40//2 39//2
f 39//3 40//3 38//3 37//3
f 37//4 38//4 34//4 33//4
f 35//5 39//5 37//5 33//5
f 40//6 36//6 34//6 38//6
f 41//8 42//8 44//8 43//8
f 43//2 44//2 48//2 47//2
f 47//3 48//3 46//3 45//3
f 45//4 46//4 42//4 41//4
f 43//5 47//5 45//5 41//5
f 48//6 44//6 42//6 46//6
f 49//1 50//1 52//1 51//1
f 51//2 52//2 56//2 55//2
f 55//3 56//3 54//3 53//3
f 53//4 54//4 50//4 49//4
f 51//5 55//5 53//5 49//5
f 56//6 52//6 50//6 54//6
f 57//1 58//1 60//1 59//1
f 59//2 60//2 64//2 63//2
f 63//3 64//3 62//3 61//3
f 61//4 62//4 58//4 57//4
f 59//5 63//5 61//5 57//5
f 64//6 60//6 58//6 62//6
